<svg width="145" height="32" viewBox="0 0 145 32" fill="none" xmlns="http://www.w3.org/2000/svg">
<g id="pp_logo.80b7ad86dad21f1f5a4d3d170bfb13be 1" clip-path="url(#clip0_6_5235)">
<path id="Vector" d="M39.6667 0.133333V11.2667H42.6001V2.73333H46.4667V11.2667H49.4667V0.133333H39.6667Z" fill="#DB2B21"/>
<g id="Clip path group">
<mask id="mask0_6_5235" style="mask-type:luminance" maskUnits="userSpaceOnUse" x="0" y="0" width="145" height="32">
<g id="h">
<path id="Vector_2" d="M0 0H145V32H0V0Z" fill="white"/>
</g>
</mask>
<g mask="url(#mask0_6_5235)">
<path id="Vector_3" d="M55.6666 8.73333C56.1999 8.73333 56.6666 8.66667 56.9332 8.6C57.1999 8.53333 57.3999 8.33333 57.5332 8.06667C57.6666 7.8 57.7332 7.4 57.7332 6.86667V4.46667C57.7332 4.06667 57.6666 3.73333 57.5999 3.46667C57.5332 3.2 57.3999 3.06667 57.2666 2.93333C57.1332 2.8 56.9332 2.73333 56.6666 2.66667C56.3999 2.6 56.0666 2.6 55.6666 2.6C55.1332 2.6 54.6666 2.66667 54.3999 2.73333C54.1332 2.8 53.9332 3 53.7999 3.2C53.6666 3.46667 53.5999 3.86667 53.5999 4.4V6.93333C53.5999 7.46667 53.6666 7.86667 53.7999 8.13333C53.9332 8.4 54.1332 8.53333 54.3999 8.66667C54.6666 8.8 55.0666 8.73333 55.6666 8.73333ZM55.6666 11.3333C54.8666 11.3333 54.1332 11.2667 53.5332 11.1333C52.9332 11 52.3999 10.8 51.9332 10.5333C51.4666 10.2667 51.1332 9.8 50.8666 9.26667C50.5999 8.73333 50.4666 8.06667 50.4666 7.2V4.13333C50.4666 3.33333 50.5999 2.6 50.8666 2.06667C51.1332 1.53333 51.4666 1.13333 51.9332 0.8C52.3999 0.466667 52.9332 0.333333 53.5332 0.2C54.1332 0.0666667 54.8666 0 55.6666 0C56.4666 0 57.1999 0.0666667 57.7999 0.2C58.3999 0.333333 58.9332 0.533333 59.3999 0.8C59.8666 1.06667 60.1999 1.53333 60.4666 2.06667C60.7332 2.6 60.8666 3.26667 60.8666 4.13333V7.26667C60.8666 8.06667 60.7332 8.8 60.4666 9.33333C60.1999 9.86667 59.8666 10.2667 59.3999 10.6C58.9332 10.8667 58.3999 11.0667 57.7999 11.2C57.1999 11.2667 56.4666 11.3333 55.6666 11.3333ZM64.7332 5.8H66.7332C67.1332 5.8 67.3999 5.73333 67.5999 5.66667C67.7999 5.6 67.8666 5.46667 67.9332 5.2C67.9999 5 67.9999 4.6 67.9999 4.13333C67.9999 3.73333 67.9999 3.4 67.9332 3.2C67.8666 3 67.7332 2.86667 67.5332 2.73333C67.3332 2.6 67.0666 2.6 66.6666 2.6H64.6666V5.8H64.7332ZM64.7332 11.2667H61.7999V0.133333H67.3999C68.0666 0.133333 68.6666 0.2 69.1999 0.333333C69.6666 0.466667 70.0666 0.733333 70.3332 1.06667C70.5999 1.4 70.8666 1.8 70.9999 2.33333C71.1332 2.86667 71.1999 3.46667 71.1999 4.2C71.1999 5 71.1332 5.66667 70.9999 6.2C70.8666 6.73333 70.6666 7.13333 70.3999 7.46667C70.1332 7.8 69.7332 8 69.2666 8.13333C68.7999 8.26667 68.1332 8.33333 67.3332 8.33333H64.7332V11.2667Z" fill="#DB2B21"/>
</g>
</g>
<path id="Vector_4" d="M71.0667 0.133333V2.73333H73.9333V11.2667H76.9333V2.73333H79.8667V0.133333H71.0667ZM85 2.33333L86.4 7.13333H83.6667L85 2.33333ZM82.6667 0.133333L79.3333 11.2667H82.4L82.9333 9.33333H86.9333L87.5333 11.2667H90.5333L87.1333 0.133333H82.6667Z" fill="#DB2B21"/>
<g id="Clip path group_2">
<mask id="mask1_6_5235" style="mask-type:luminance" maskUnits="userSpaceOnUse" x="0" y="0" width="145" height="32">
<g id="f">
<path id="Vector_5" d="M0 0H145V32H0V0Z" fill="white"/>
</g>
</mask>
<g mask="url(#mask1_6_5235)">
<path id="Vector_6" d="M92.2 0.133333H101.2V11.2667H98.2V2.73333H95V7.4C95 8.2 94.8666 8.93333 94.6666 9.53333C94.4 10.1333 94.0666 10.6 93.5333 10.8667C93.0666 11.2 92.4 11.3333 91.6666 11.3333C91.1333 11.3333 90.6 11.2667 90.1333 11.2V8.8C90.3333 8.86667 90.6666 8.93333 91.0666 8.93333C91.4666 8.93333 91.7333 8.8 91.9333 8.6C92.0666 8.4 92.2 8 92.2 7.46667V0.133333Z" fill="#DB2B21"/>
</g>
</g>
<path id="Vector_7" d="M39.6667 15.8H47.8001V25.8667H46.6667V16.8H40.8001V25.8667H39.6667V15.8Z" fill="#B4B1B1"/>
<g id="Clip path group_3">
<mask id="mask2_6_5235" style="mask-type:luminance" maskUnits="userSpaceOnUse" x="0" y="0" width="145" height="32">
<g id="d">
<path id="Vector_8" d="M0 0H145V32H0V0Z" fill="white"/>
</g>
</mask>
<g mask="url(#mask2_6_5235)">
<path id="Vector_9" d="M50.2667 23C50.3333 23.5333 50.4667 23.9333 50.6667 24.2C50.8667 24.4667 51.2 24.6667 51.6 24.8C52 24.9333 52.5333 24.9333 53.2667 24.9333C54 24.9333 54.5333 24.8667 54.9333 24.8C55.3333 24.6667 55.6 24.4667 55.8667 24.2C56.0667 23.9333 56.2 23.5333 56.2667 23C56.3333 22.4667 56.4 21.7333 56.4 20.8C56.4 19.8 56.4 19.0667 56.2667 18.6C56.2 18.0667 56.0667 17.6667 55.8667 17.4C55.6667 17.1333 55.3333 16.9333 55 16.8C54.5333 16.7333 54 16.6667 53.2667 16.6667C52.5333 16.6667 52 16.7333 51.6 16.8C51.2 16.9333 50.9333 17.0667 50.7333 17.4C50.5333 17.6667 50.4 18.0667 50.3333 18.6C50.2667 19.1333 50.2 19.8667 50.2 20.8C50.1333 21.8 50.2 22.5333 50.2667 23ZM49.2 18.1333C49.3333 17.4667 49.5333 16.9333 49.8667 16.6C50.2 16.2667 50.6 16 51.1333 15.8667C51.6667 15.7333 52.4 15.6667 53.2667 15.6667C54.1333 15.6667 54.8667 15.7333 55.4 15.8667C55.9333 16 56.3333 16.2667 56.6667 16.6C57 16.9333 57.2 17.4667 57.3333 18.1333C57.4667 18.8 57.5333 19.6667 57.5333 20.8C57.5333 21.9333 57.4667 22.8 57.3333 23.4667C57.2 24.1333 57 24.6667 56.6667 25C56.3333 25.3333 55.9333 25.6 55.4 25.7333C54.8667 25.8667 54.1333 25.9333 53.2667 25.9333C52.4 25.9333 51.6667 25.8667 51.1333 25.7333C50.6 25.6 50.2 25.3333 49.8667 25C49.5333 24.6667 49.3333 24.1333 49.2 23.4667C49.0667 22.8 49 21.9333 49 20.8C49.0667 19.7333 49.0667 18.8 49.2 18.1333ZM65.2 22.4667H66.2667C66.2667 23.3333 66.1333 24.0667 65.9333 24.5333C65.7333 25 65.3333 25.4 64.7333 25.6C64.1333 25.8 63.3333 25.9333 62.2667 25.9333C61.4667 25.9333 60.8 25.8667 60.3333 25.7333C59.8667 25.6 59.4 25.3333 59.1333 25C58.8 24.6667 58.6 24.1333 58.4667 23.4667C58.3333 22.8 58.2667 21.9333 58.2667 20.8667C58.2667 19.8 58.3333 18.9333 58.4667 18.2667C58.6 17.6 58.8 17.0667 59.1333 16.7333C59.4667 16.3333 59.8667 16.1333 60.3333 15.9333C60.8667 15.8 61.4667 15.7333 62.2667 15.7333C63.0667 15.7333 63.7333 15.8 64.2 15.9333C64.6667 16.0667 65.0667 16.2667 65.3333 16.5333C65.6 16.8 65.8 17.1333 65.8667 17.5333C66 17.9333 66.0667 18.4667 66.0667 19.0667H65C64.9333 18.4 64.8 17.9333 64.7333 17.6C64.6667 17.2667 64.3333 17.0667 64 16.9333C63.6667 16.8 63.0667 16.6667 62.2667 16.6667C61.6667 16.6667 61.2 16.7333 60.8 16.8667C60.4667 17 60.1333 17.2 59.9333 17.4667C59.7333 17.7333 59.6 18.2 59.4667 18.7333C59.2898 20.1501 59.2898 21.5833 59.4667 23C59.5333 23.5333 59.7333 23.9333 59.9333 24.2C60.1333 24.4667 60.4667 24.6667 60.8 24.8C61.1333 24.9333 61.6667 24.9333 62.2667 24.9333C62.8667 24.9333 63.4 24.8667 63.7333 24.8C64.1333 24.7333 64.4 24.6 64.6 24.4C64.8 24.2 64.9333 24 65.0667 23.6667C65.1333 23.4 65.2 23 65.2 22.4667Z" fill="#B4B1B1"/>
</g>
</g>
<path id="Vector_10" d="M69.7332 25.8667V16.8H66.3999V15.8H74.1332V16.8H70.8666V25.8667H69.7332ZM81.1332 22.8L78.9332 16.6L76.7332 22.8H81.1332ZM74.3332 25.8667L77.9999 15.8H79.5999L83.3332 25.8667H82.1332L81.3999 23.8H76.3332L75.5332 25.8667H74.3332Z" fill="#B4B1B1"/>
<g id="Clip path group_4">
<mask id="mask3_6_5235" style="mask-type:luminance" maskUnits="userSpaceOnUse" x="0" y="0" width="145" height="32">
<g id="b">
<path id="Vector_11" d="M0 0H145V32H0V0Z" fill="white"/>
</g>
</mask>
<g mask="url(#mask3_6_5235)">
<path id="Vector_12" d="M85.4666 21.1333V24.8H88.5999C89.0666 24.8 89.4666 24.8 89.7333 24.7333C89.9999 24.6667 90.2666 24.6 90.3999 24.4667C90.5999 24.3333 90.7332 24.1333 90.7999 23.9333C90.8666 23.6667 90.9332 23.3333 90.9332 22.9333C90.9332 22.4 90.8666 22 90.7999 21.7333C90.6666 21.4667 90.5332 21.3333 90.2666 21.2C89.9999 21.1333 89.5999 21.0667 89.0666 21.0667H85.4666V21.1333ZM85.4666 16.8V20.2H88.6666C89.1999 20.2 89.5333 20.1333 89.8666 20.0667C90.1333 19.9333 90.3332 19.8 90.4666 19.5333C90.5999 19.2667 90.6666 18.9333 90.6666 18.4C90.6666 17.8 90.5333 17.3333 90.3333 17.1333C90.1333 16.9333 89.7332 16.8 89.1332 16.8H85.4666ZM89.4666 25.8667H84.3333V15.8H89.1999C90.0666 15.8 90.7332 16 91.1332 16.4C91.5332 16.8 91.7333 17.4 91.7333 18.3333C91.7333 18.7333 91.7333 19.1333 91.6666 19.4C91.5999 19.6667 91.4666 19.9333 91.3333 20.1333C91.1999 20.3333 90.8666 20.5333 90.5333 20.6667C90.9333 20.8 91.2666 20.9333 91.5333 21.1333C91.7333 21.3333 91.9333 21.6 91.9999 21.8667C92.0666 22.1333 92.1332 22.5333 92.1332 23C92.1332 23.9333 91.9333 24.6667 91.5333 25.1333C91.0666 25.6 90.3999 25.8667 89.4666 25.8667Z" fill="#B4B1B1"/>
</g>
</g>
<path id="Vector_13" d="M99.5333 15.8H100.667V24.8667H105.8V15.8H106.933V24.8667H107.6V28.2H106.6V25.8667H93.3333V15.8H94.3999V24.8667H99.5333V15.8ZM108.733 15.8H109.867V25.0667L115.6 15.8H117.4V25.8667H116.267V16.6667L110.533 25.8667H108.733V15.8ZM120.133 15.8V20.2H121.133L125.267 15.8H126.733L122.133 20.6667L127.267 25.8667H125.733L121.133 21.2H120.133V25.8667H119V15.8H120.133Z" fill="#B4B1B1"/>
<g id="Clip path group_5">
<mask id="mask4_6_5235" style="mask-type:luminance" maskUnits="userSpaceOnUse" x="0" y="0" width="145" height="32">
<g id="j">
<path id="Vector_14" d="M0 0H145V32H0V0Z" fill="white"/>
</g>
</mask>
<g mask="url(#mask4_6_5235)">
<path id="Vector_15" d="M128.933 23C129 23.5333 129.133 23.9333 129.333 24.2C129.533 24.4667 129.867 24.6667 130.267 24.8C130.667 24.9333 131.2 24.9333 131.933 24.9333C132.667 24.9333 133.2 24.8667 133.6 24.8C134 24.6667 134.267 24.4667 134.533 24.2C134.733 23.9333 134.867 23.5333 134.933 23C135 22.4667 135.067 21.7333 135.067 20.8C135.067 19.8 135 19.0667 134.933 18.6C134.867 18.0667 134.733 17.6667 134.533 17.4C134.333 17.1333 134 16.9333 133.667 16.8C133.267 16.6667 132.733 16.6667 132 16.6667C131.267 16.6667 130.733 16.7333 130.333 16.8C129.933 16.9333 129.667 17.0667 129.467 17.4C129.267 17.6667 129.133 18.0667 129.067 18.6C129 19.1333 128.933 19.8667 128.933 20.8C128.8 21.8 128.867 22.5333 128.933 23ZM127.867 18.1333C128 17.4667 128.2 16.9333 128.533 16.6C128.867 16.2667 129.267 16 129.8 15.8667C130.333 15.7333 131.067 15.6667 131.933 15.6667C132.8 15.6667 133.533 15.7333 134.067 15.8667C134.6 16 135 16.2667 135.333 16.6C135.667 16.9333 135.867 17.4667 136 18.1333C136.133 18.8 136.2 19.6667 136.2 20.8C136.2 21.9333 136.133 22.8 136 23.4667C135.867 24.1333 135.667 24.6667 135.333 25C135 25.3333 134.6 25.6 134.067 25.7333C133.533 25.8667 132.8 25.9333 131.933 25.9333C131.067 25.9333 130.333 25.8667 129.8 25.7333C129.267 25.6 128.867 25.3333 128.533 25C128.2 24.6667 128 24.1333 127.867 23.4667C127.733 22.8 127.667 21.9333 127.667 20.8C127.667 19.7333 127.733 18.8 127.867 18.1333ZM138.4 21.1333V24.8H141.533C142 24.8 142.4 24.8 142.667 24.7333C142.933 24.6667 143.2 24.6 143.333 24.4667C143.533 24.3333 143.667 24.1333 143.733 23.9333C143.8 23.6667 143.867 23.3333 143.867 22.9333C143.867 22.4 143.8 22 143.733 21.7333C143.6 21.4667 143.467 21.3333 143.2 21.2C142.933 21.1333 142.533 21.0667 142 21.0667H138.4V21.1333ZM138.4 16.8V20.2H141.6C142.133 20.2 142.467 20.1333 142.8 20.0667C143.067 19.9333 143.267 19.8 143.4 19.5333C143.533 19.2667 143.6 18.9333 143.6 18.4C143.6 17.8 143.467 17.3333 143.267 17.1333C143.067 16.9333 142.667 16.8 142.067 16.8H138.4ZM142.4 25.8667H137.267V15.8H142.133C143 15.8 143.667 16 144.067 16.4C144.467 16.8 144.667 17.4 144.667 18.3333C144.667 18.7333 144.667 19.1333 144.6 19.4C144.533 19.6667 144.4 19.9333 144.267 20.1333C144.133 20.3333 143.8 20.5333 143.467 20.6667C143.867 20.8 144.2 20.9333 144.467 21.1333C144.667 21.3333 144.867 21.6 144.933 21.8667C145 22.1333 145.067 22.5333 145.067 23C145.067 23.9333 144.867 24.6667 144.467 25.1333C144 25.6 143.333 25.8667 142.4 25.8667Z" fill="#B4B1B1"/>
</g>
</g>
<path id="Vector_16" d="M5.46667 10.8667H21.1333V26.5333H5.46667V10.8667ZM0 32H26.6V5.4H0V32Z" fill="#B4B1B1"/>
<path id="Vector_17" d="M10.8666 5.46667H26.5332V21.1333H10.8666V5.46667ZM5.3999 26.6H31.9999V0H5.3999V26.6Z" fill="#DB2B21"/>
<path id="Vector_18" d="M21.1333 5.46667V26.6L26.6 32V5.4L21.1333 5.46667Z" fill="#B4B1B1"/>
</g>
<defs>
<clipPath id="clip0_6_5235">
<rect width="145" height="32" fill="white"/>
</clipPath>
</defs>
</svg>
