<svg width="16" height="16" viewBox="0 0 16 16" fill="none" xmlns="http://www.w3.org/2000/svg">
<g id="idea.b52db5ca7885128cfc803649e32339b4 1" clip-path="url(#clip0_43_21665)">
<path id="Vector" d="M4.69224 3.46558C4.73178 3.4261 4.76315 3.37921 4.78456 3.3276C4.80596 3.27598 4.81698 3.22066 4.81698 3.16478C4.81698 3.1089 4.80596 3.05358 4.78456 3.00196C4.76315 2.95035 4.73178 2.90346 4.69224 2.86398L4.09064 2.26238C4.01043 2.18343 3.90239 2.13918 3.78984 2.13918C3.67729 2.13918 3.56926 2.18343 3.48904 2.26238C3.40996 2.34253 3.36562 2.45059 3.36562 2.56318C3.36562 2.67577 3.40996 2.78384 3.48904 2.86398L4.09064 3.46558C4.13008 3.5051 4.17692 3.53646 4.22849 3.55786C4.28006 3.57925 4.33534 3.59027 4.39118 3.59027C4.44701 3.59027 4.50229 3.57925 4.55386 3.55786C4.60543 3.53646 4.65228 3.5051 4.69171 3.46558H4.69224ZM8.42504 2.27305C8.48096 2.27285 8.53628 2.26157 8.58782 2.23988C8.63936 2.21818 8.68609 2.1865 8.72531 2.14665C8.76502 2.10718 8.7965 2.06022 8.81793 2.00849C8.83935 1.95677 8.85029 1.9013 8.85011 1.84531V0.99518C8.84997 0.88244 8.80516 0.774349 8.72549 0.694579C8.64582 0.61481 8.53778 0.569862 8.42504 0.56958C8.34134 0.569877 8.25957 0.59482 8.18996 0.641295C8.12034 0.687771 8.06595 0.75372 8.03358 0.830913L7.99998 0.996247V1.84691C8.00026 1.95961 8.04511 2.06762 8.12475 2.14736C8.20439 2.2271 8.31235 2.27262 8.42504 2.27305ZM2.47251 6.52371H1.62238C1.50963 6.52414 1.40162 6.56911 1.3219 6.64884C1.24217 6.72856 1.1972 6.83657 1.19678 6.94931C1.19706 7.0621 1.24199 7.17019 1.32174 7.24995C1.4015 7.3297 1.50959 7.37463 1.62238 7.37491H2.47251C2.5853 7.37463 2.69339 7.3297 2.77314 7.24995C2.8529 7.17019 2.89783 7.0621 2.89811 6.94931C2.89783 6.83652 2.8529 6.72844 2.77314 6.64868C2.69339 6.56893 2.5853 6.524 2.47251 6.52371ZM13.1104 2.86398C13.0301 2.78487 12.922 2.74051 12.8093 2.74051C12.6966 2.74051 12.5885 2.78487 12.5082 2.86398L11.9072 3.46558C11.833 3.54639 11.7928 3.65273 11.7951 3.76241C11.7975 3.8721 11.842 3.97666 11.9196 4.05427C11.9971 4.13188 12.1016 4.17655 12.2113 4.17895C12.321 4.18136 12.4274 4.14132 12.5082 4.06718L13.1104 3.46558C13.1901 3.38578 13.2349 3.27759 13.2349 3.16478C13.2349 3.05198 13.1901 2.94378 13.1104 2.86398ZM14.3776 7.37278H13.5274C13.4147 7.3732 13.3067 7.41818 13.227 7.4979C13.1472 7.57763 13.1023 7.68563 13.1018 7.79838C13.1024 7.91098 13.1475 8.0188 13.2272 8.09833C13.3069 8.17785 13.4148 8.22263 13.5274 8.22291H14.3776C14.4902 8.22277 14.5982 8.17804 14.678 8.09848C14.7577 8.01893 14.8028 7.91103 14.8032 7.79838C14.8029 7.68559 14.758 7.5775 14.6782 7.49775C14.5985 7.41799 14.4904 7.37306 14.3776 7.37278ZM7.99998 4.01758C5.87251 4.01758 4.14184 5.75198 4.14184 7.88318C4.13993 8.49414 4.28387 9.09672 4.56169 9.64086C4.83951 10.185 5.24319 10.655 5.73918 11.0117V12.6293H6.74664V10.7434C6.74663 10.6576 6.72467 10.5732 6.68285 10.4983C6.64103 10.4233 6.58074 10.3603 6.50771 10.3152C6.09152 10.0605 5.74789 9.703 5.50989 9.27707C5.27189 8.85113 5.14753 8.3711 5.14878 7.88318C5.14878 6.30718 6.42824 5.02451 7.99998 5.02451C9.57224 5.02451 10.8506 6.30718 10.8506 7.88318C10.8519 8.37105 10.7277 8.85104 10.4898 9.27698C10.2519 9.70291 9.90833 10.0604 9.49224 10.3152C9.41921 10.3603 9.35893 10.4233 9.31711 10.4983C9.27529 10.5732 9.25333 10.6576 9.25331 10.7434V12.6293H10.2602V11.0117C10.7561 10.655 11.1597 10.1851 11.4375 9.64104C11.7153 9.09701 11.8593 8.49456 11.8576 7.88371C11.8576 5.75198 10.1274 4.01758 7.99998 4.01758ZM7.99998 14.424C7.47784 14.424 7.03464 14.1018 6.85011 13.6357H5.79944C5.90263 14.143 6.17815 14.5989 6.57926 14.9261C6.98036 15.2533 7.48233 15.4317 7.99998 15.4309C8.5176 15.4316 9.01952 15.2532 9.4206 14.926C9.82168 14.5988 10.0972 14.1429 10.2005 13.6357H9.14878C9.05921 13.8677 8.90155 14.0671 8.6965 14.2078C8.49146 14.3485 8.24865 14.4239 7.99998 14.424Z" fill="#264B82" stroke="#264B82" stroke-width="0.5"/>
</g>
<defs>
<clipPath id="clip0_43_21665">
<rect width="16" height="16" fill="white"/>
</clipPath>
</defs>
</svg>
