<svg width="140" height="140" viewBox="0 0 140 140" fill="none" xmlns="http://www.w3.org/2000/svg">
<g id="Group 2634">
<g id="Group 2611">
<circle id="Ellipse 2" cx="70" cy="70" r="70" fill="#E7EEF7"/>
<g id="Group 248">
<g id="&#208;&#184;&#208;&#186;&#208;&#190;&#208;&#189;&#208;&#186;&#208;&#184;_&#208;&#191;&#208;&#187;&#208;&#176;&#208;&#189;&#209;&#139;">
<path id="Vector" opacity="0.2" d="M88.6287 52.0382V47.9824H82.4836V52.0382H67.3359V47.9824H61.1908V52.0382H39.9902V111.431H109.952V52.0382H88.6287Z" fill="url(#paint0_linear_23_4890)"/>
<path id="Vector_2" fill-rule="evenodd" clip-rule="evenodd" d="M80.6078 40.0558V36H74.4627V40.0558H59.3457V36H53.2006V40.0558H32V99.4482H77.2965L76.7698 93.3645H38.0529V59.0441H95.8169V72.8692H101.87V40.0558H80.6078ZM59.3457 46.1394V50.1645H53.4157V46.1394H38.0529V52.9912H95.8169V46.1394H80.6692V49.212H74.5241V46.1394H59.3457Z" fill="#7FB3E3"/>
<path id="Fill 4" fill-rule="evenodd" clip-rule="evenodd" d="M91.4867 66.5488C80.148 66.5488 70.9756 75.7212 70.9756 87.0599C70.9756 98.4003 80.148 107.573 91.4867 107.573C102.827 107.573 112 98.2336 112 87.0599C112 75.7212 102.662 66.5488 91.4867 66.5488ZM91.4867 72.219C99.6585 72.219 106.329 78.8898 106.329 87.0599C106.329 95.2334 99.6585 101.904 91.4867 102.069C83.3166 102.069 76.6458 95.3985 76.6458 87.2284C76.6458 78.8898 83.3166 72.219 91.4867 72.219Z" fill="#2155A5"/>
<path id="Fill 3" fill-rule="evenodd" clip-rule="evenodd" d="M93.3235 85.5607V75.8863H87.8184V91.2292L100.828 91.0641L100.66 85.5607H93.3235Z" fill="#2155A5"/>
</g>
</g>
</g>
</g>
<defs>
<linearGradient id="paint0_linear_23_4890" x1="74.9559" y1="47.9824" x2="74.9559" y2="111.431" gradientUnits="userSpaceOnUse">
<stop stop-color="#077EBB"/>
<stop offset="1" stop-color="#077EBB" stop-opacity="0"/>
</linearGradient>
</defs>
</svg>
