<svg width="30" height="30" viewBox="0 0 30 30" fill="none" xmlns="http://www.w3.org/2000/svg">
<g id="purchases_icon.5f040e3963d0c19a9afce27bcf267066 1">
<path id="Vector" d="M3.17599 5.01001C2.91078 5.01001 2.65642 5.11537 2.46889 5.3029C2.28135 5.49044 2.17599 5.74479 2.17599 6.01001C2.17599 6.27523 2.28135 6.52958 2.46889 6.71712C2.65642 6.90465 2.91078 7.01001 3.17599 7.01001V5.01001ZM6.86999 6.01001L7.81599 5.68901L7.58599 5.01101H6.86999V6.01001ZM7.94999 9.19401L8.904 8.89101L8.90099 8.88101L8.89799 8.87201L7.95099 9.19401H7.94999ZM10.489 17.175L9.536 17.479L10.489 17.176V17.175ZM3.17599 7.01001H6.86999V5.01101L3.17599 5.01001V7.01001ZM12.396 19.57H19.204V17.57H12.395L12.396 19.57ZM22.059 17.492L23.777 12.179L21.874 11.563L20.156 16.877L22.059 17.492ZM5.92299 6.33201L7.00399 9.51501L8.89799 8.87201L7.81599 5.68901L5.92299 6.33301V6.33201ZM6.99799 9.49701L9.536 17.479L11.442 16.872L8.904 8.89101L6.99799 9.49701ZM20.922 8.25601H20.207V10.256H20.922V8.25601ZM23.777 12.179C23.9226 11.7288 23.9596 11.2506 23.8851 10.7834C23.8105 10.3162 23.6266 9.87326 23.3482 9.49072C23.0698 9.10819 22.7048 8.79692 22.2832 8.58233C21.8615 8.36775 21.3951 8.25593 20.922 8.25601V10.256C21.0797 10.256 21.2351 10.2932 21.3756 10.3647C21.5161 10.4361 21.6378 10.5398 21.7306 10.6672C21.8234 10.7947 21.8848 10.9423 21.9097 11.0979C21.9346 11.2536 21.9224 11.413 21.874 11.563L23.777 12.179ZM19.204 19.57C19.8383 19.5701 20.4564 19.3681 20.9694 18.995C21.4824 18.6218 21.8638 18.0956 22.059 17.492L20.156 16.877C20.0909 17.0782 19.9636 17.2536 19.7926 17.3779C19.6215 17.5022 19.4155 17.5701 19.204 17.57V19.57ZM12.395 17.57C12.1827 17.57 11.976 17.5015 11.8046 17.3762C11.6333 17.2509 11.5063 17.0743 11.442 16.872L9.536 17.479C9.72917 18.0858 10.1104 18.6154 10.6246 18.9912C11.1388 19.3669 11.7592 19.5703 12.396 19.57V17.569L12.395 17.57Z" fill="#264B82"/>
<path id="Vector_2" d="M11.147 8.77503L11.493 8.41403L11.348 8.27503H11.148L11.147 8.77503ZM12.172 9.75503V10.255H13.419L12.518 9.39403L12.172 9.75503ZM11.148 8.27503H7.88V9.27503H11.148V8.27503ZM10.802 9.13703L11.827 10.117L12.518 9.39403L11.493 8.41403L10.802 9.13703ZM12.172 9.25503H7.952V10.255H12.172V9.25503ZM20.244 8.75403L19.874 8.41903L20.023 8.25403H20.244V8.75403ZM19.339 9.75503V10.255H18.212L18.968 9.42003L19.338 9.75503H19.339ZM20.244 8.25403H20.989V9.25403H20.244V8.25403ZM20.615 9.08903L19.71 10.091L18.968 9.42003L19.874 8.41903L20.615 9.08903ZM19.339 9.25503H20.989V10.255H19.339V9.25503Z" fill="#264B82"/>
<path id="Vector_3" d="M11.542 25.468C12.6134 25.468 13.482 24.5994 13.482 23.528C13.482 22.4566 12.6134 21.588 11.542 21.588C10.4706 21.588 9.60201 22.4566 9.60201 23.528C9.60201 24.5994 10.4706 25.468 11.542 25.468Z" stroke="#264B82" stroke-width="1.8"/>
<path id="Vector_4" d="M20.222 25.468C21.2934 25.468 22.162 24.5994 22.162 23.528C22.162 22.4566 21.2934 21.588 20.222 21.588C19.1506 21.588 18.282 22.4566 18.282 23.528C18.282 24.5994 19.1506 25.468 20.222 25.468Z" stroke="#264B82" stroke-width="1.8"/>
<path id="Vector_5" fill-rule="evenodd" clip-rule="evenodd" d="M14.848 8.158L13.875 7.185C13.795 7.10097 13.699 7.0338 13.5926 6.98744C13.4862 6.94109 13.3716 6.91648 13.2556 6.91506C13.1396 6.91365 13.0244 6.93546 12.917 6.97921C12.8095 7.02296 12.7119 7.08776 12.6298 7.16981C12.5478 7.25186 12.483 7.3495 12.4392 7.45697C12.3955 7.56444 12.3736 7.67958 12.3751 7.7956C12.3765 7.91163 12.4011 8.0262 12.4474 8.13257C12.4938 8.23895 12.561 8.33497 12.645 8.415L15.777 11.546L18.907 8.415C18.9928 8.33546 19.0617 8.23944 19.1095 8.13267C19.1574 8.0259 19.1832 7.91058 19.1854 7.7936C19.1877 7.67663 19.1663 7.5604 19.1226 7.45188C19.0789 7.34335 19.0137 7.24476 18.931 7.162C18.8483 7.07924 18.7498 7.014 18.6413 6.9702C18.5328 6.9264 18.4166 6.90493 18.2996 6.90708C18.1826 6.90923 18.0673 6.93494 17.9605 6.9827C17.8537 7.03045 17.7576 7.09925 17.678 7.185L16.458 8.405V3.633H14.848V8.159V8.158Z" fill="#264B82"/>
</g>
</svg>
