<svg width="51" height="51" viewBox="0 0 51 51" fill="none" xmlns="http://www.w3.org/2000/svg">
<g id="default_region_icon.f9f6e57ec6da1d6dea9894515111f93c 1">
<path id="Vector" d="M25.7659 49.9399C39.55 49.9399 50.7233 38.7665 50.7233 24.9824C50.7233 11.1983 39.55 0.0249557 25.7659 0.0249557C11.9828 0.0249557 0.808411 11.1983 0.808411 24.9824C0.808411 38.7665 11.9828 49.9399 25.7659 49.9399Z" fill="#E7EEF7"/>
<path id="Vector_2" d="M10.7078 28.0272V35.623H20.4738V28.0272L15.5908 22.6017L10.7078 28.0272ZM16.9038 31.5093C17.0991 31.6721 17.3747 31.9618 17.4952 32.2852C17.6362 32.665 17.6058 33.0925 17.6058 33.4169V35.623C17.1034 35.6306 13.7906 35.623 13.7906 35.623V33.4169C13.7906 32.9981 13.7374 32.6454 13.8807 32.2852C13.9933 32.0027 14.1709 31.7508 14.3993 31.55C14.6276 31.3492 14.9001 31.2051 15.1946 31.1295C15.4891 31.0539 15.7973 31.0489 16.0941 31.1149C16.3909 31.1809 16.668 31.316 16.9027 31.5093H16.9038ZM33.4951 32.3666V17.1751L30.2397 15.0049V12.2921L29.6972 11.7495H28.8085L25.9004 8.10358L22.9923 11.7495H22.1025L21.56 12.2921V15.0049L18.3047 17.1751V22.6006L20.4749 24.7708V18.2602H22.6451V35.6219H35.6664V33.4517L34.5813 32.3666H33.4951ZM26.9844 32.3666H24.8142V18.2602H26.9844V32.3666ZM31.3248 32.3666H29.1579L29.1546 18.2602H31.3248V32.3666ZM35.6653 20.4304V30.1963L37.8355 32.3666V35.6219H41.0908V20.4304H35.6653Z" fill="#264B82"/>
</g>
</svg>
