<svg width="22" height="22" viewBox="0 0 22 22" fill="none" xmlns="http://www.w3.org/2000/svg">
<g id="Frame 5640">
<rect id="Rectangle 171" x="3.66666" y="3.66666" width="14.6667" height="14.6667" rx="2" stroke="#264B82" stroke-width="1.5"/>
<path id="Vector 8 (Stroke)" fill-rule="evenodd" clip-rule="evenodd" d="M11 5.5C11.2813 5.5 11.5093 5.72386 11.5093 6V16C11.5093 16.2761 11.2813 16.5 11 16.5C10.7187 16.5 10.4907 16.2761 10.4907 16V6C10.4907 5.72386 10.7187 5.5 11 5.5ZM14.6667 7.5C14.9479 7.5 15.1759 7.72386 15.1759 8V16C15.1759 16.2761 14.9479 16.5 14.6667 16.5C14.3854 16.5 14.1574 16.2761 14.1574 16V8C14.1574 7.72386 14.3854 7.5 14.6667 7.5ZM7.33329 10.5C7.61454 10.5 7.84255 10.7239 7.84255 11V16C7.84255 16.2761 7.61454 16.5 7.33329 16.5C7.05203 16.5 6.82403 16.2761 6.82403 16V11C6.82403 10.7239 7.05203 10.5 7.33329 10.5Z" fill="#264B82" stroke="#264B82" stroke-width="0.5" stroke-linecap="round"/>
</g>
</svg>
