<svg width="65" height="64" viewBox="0 0 65 64" fill="none" xmlns="http://www.w3.org/2000/svg">
<g id="tab_manufacturers_icon.fa31fb31194acece8c16ca3740cb6fe1 1" clip-path="url(#clip0_43_22282)">
<path id="Vector" d="M59.0348 45.9544L32.8833 57.0069C30.8894 57.8392 28.6638 57.793 26.7627 56.8681L13.8723 50.3939L12.2031 53.6773L25.1398 60.1515C26.6699 60.8914 28.3392 61.2614 30.0084 61.2614C31.4922 61.2614 32.9759 60.9839 34.3207 60.3827L60.4723 49.3766C61.8632 48.7753 62.9297 47.6654 63.4862 46.2781C64.0426 44.8445 63.9962 43.3185 63.347 41.9311C62.0951 39.2489 58.803 38.0003 55.9745 39.2027L54.3517 39.8963L46.4691 43.2259L47.9065 46.6481L55.789 43.3185L57.4119 42.6248C58.3856 42.2086 59.5449 42.5786 59.9622 43.5034C60.194 43.9658 60.194 44.4746 60.0085 44.9371C59.8231 45.3994 59.4984 45.7694 59.0348 45.9544Z" fill="url(#paint0_linear_43_22282)"/>
<path id="Vector_2" opacity="0.2" d="M9.32858 43.1793L13.6871 39.5722C16.191 37.6762 19.2513 36.8438 22.358 37.2138C23.6099 37.3524 24.7691 37.6762 25.8819 38.1849L37.8913 43.5031C38.2159 43.6417 38.494 43.873 38.6795 44.1966C39.0041 44.7054 39.0504 45.3529 38.8186 45.954C38.7258 46.139 38.6332 46.2777 38.5404 46.4164C37.9839 47.0177 37.1494 47.2026 36.4075 46.8789L27.1339 42.7631L25.6038 46.139L34.8774 50.2547C35.6193 50.5785 36.4075 50.7634 37.1494 50.7634C38.7258 50.7634 40.2096 50.116 41.3224 48.8674C41.6934 48.4511 42.018 47.9888 42.2498 47.48C42.9917 45.769 42.8527 43.8267 41.8789 42.2544C41.2761 41.3295 40.4415 40.5896 39.4677 40.1734L27.412 34.8091C25.9747 34.1616 24.3982 33.7454 22.8217 33.5604C18.7413 33.0979 14.7073 34.2078 11.4615 36.6589L5.61914 41.422V61.7234H9.32858V43.1793Z" fill="url(#paint1_linear_43_22282)"/>
<path id="Vector_3" opacity="0.2" fill-rule="evenodd" clip-rule="evenodd" d="M46.8385 17.8976C46.8036 17.5879 46.4416 17.3553 46.1285 17.3553C45.1164 17.3553 44.2184 16.7625 43.8417 15.8459C43.4569 14.9071 43.705 13.8123 44.4593 13.1223C44.6967 12.9058 44.7255 12.5435 44.5265 12.2918C44.0085 11.6358 43.4197 11.0432 42.7768 10.5296C42.5252 10.3281 42.1558 10.3562 41.9375 10.5972C41.2792 11.3243 40.0968 11.5945 39.1831 11.2143C38.2322 10.8154 37.6327 9.85447 37.6913 8.82298C37.7106 8.49899 37.4732 8.21728 37.1493 8.17966C36.3244 8.08451 35.4922 8.08156 34.6648 8.1731C34.3446 8.20835 34.1071 8.48342 34.1179 8.80331C34.154 9.82463 33.5471 10.7688 32.6057 11.1533C31.7029 11.5211 30.5288 11.2532 29.8718 10.5325C29.6547 10.2952 29.2914 10.266 29.0383 10.4626C28.3765 10.9806 27.7745 11.5736 27.2517 12.2242C27.0478 12.4772 27.0779 12.8438 27.3176 13.0614C28.0863 13.7556 28.3345 14.86 27.9352 15.8096C27.5539 16.7149 26.6113 17.2985 25.5322 17.2985C25.182 17.2872 24.9326 17.5216 24.8942 17.8391C24.7971 18.6666 24.7959 19.5098 24.8895 20.344C24.9242 20.6549 25.2972 20.8856 25.6137 20.8856C26.5754 20.861 27.4988 21.4549 27.8861 22.3949C28.2721 23.3337 28.0239 24.4279 27.2685 25.1185C27.0322 25.335 27.0023 25.6968 27.2014 25.9484C27.7146 26.6002 28.3034 27.1935 28.9485 27.7113C29.2015 27.9146 29.5697 27.8859 29.7891 27.6449C30.4498 26.9161 31.6321 26.6463 32.5422 27.0273C33.4954 27.4249 34.0951 28.3858 34.0364 29.4178C34.0173 29.7419 34.2559 30.0242 34.5784 30.0612C35.0005 30.1104 35.425 30.1349 35.8506 30.1349C36.2547 30.1349 36.659 30.1127 37.063 30.0679C37.3833 30.0326 37.6206 29.7575 37.6097 29.4371C37.5727 28.4163 38.1806 27.4722 39.1208 27.0883C40.0297 26.7181 41.1989 26.9891 41.8559 27.709C42.0742 27.9458 42.4351 27.9744 42.6894 27.7784C43.35 27.2618 43.9509 26.6692 44.476 26.0167C44.6798 25.7643 44.6511 25.3972 44.4101 25.1796C43.6415 24.4854 43.392 23.3809 43.7914 22.4319C44.1668 21.5387 45.0743 20.9388 46.0506 20.9388L46.1871 20.9424C46.5038 20.968 46.7951 20.7247 46.8335 20.4024C46.9308 19.5742 46.932 18.7318 46.8385 17.8976ZM35.8815 22.8177C33.8501 22.8177 32.1978 21.1699 32.1978 19.1439C32.1978 17.1181 33.8501 15.47 35.8815 15.47C37.9128 15.47 39.5652 17.1181 39.5652 19.1439C39.5652 21.1699 37.9128 22.8177 35.8815 22.8177Z" fill="url(#paint2_linear_43_22282)"/>
<path id="Vector_4" d="M53.9157 40.8479L27.7641 51.9004C25.7703 52.7328 23.5446 52.6866 21.6436 51.7617L8.75323 45.2874L7.08398 48.5708L20.0206 55.0451C21.5508 55.785 23.22 56.155 24.8893 56.155C26.373 56.155 27.8568 55.8774 29.2016 55.2763L55.3531 44.2701C56.7441 43.6688 57.8106 42.559 58.367 41.1717C58.9234 39.7381 58.8771 38.212 58.2279 36.8246C56.9759 34.1425 53.6839 32.8939 50.8553 34.0963L49.2326 34.7899L41.3499 38.1195L42.7874 41.5416L50.6699 38.212L52.2928 37.5183C53.2665 37.1021 54.4258 37.4721 54.843 38.397C55.0749 38.8594 55.0749 39.3681 54.8894 39.8306C54.7039 40.293 54.3793 40.663 53.9157 40.8479Z" fill="#7FB3E3"/>
<path id="Vector_5" d="M4.20944 38.0729L8.56803 34.4657C11.0719 32.5697 14.1321 31.7373 17.2388 32.1072C18.4908 32.246 19.65 32.5697 20.7628 33.0784L32.7721 38.3965C33.0967 38.5353 33.3749 38.7664 33.5604 39.0902C33.885 39.5989 33.9313 40.2463 33.6995 40.8476C33.6067 41.0325 33.514 41.1712 33.4212 41.3099C32.8648 41.9111 32.0302 42.0961 31.2884 41.7724L22.0148 37.6566L20.4846 41.0325L29.7582 45.1483C30.5001 45.472 31.2884 45.657 32.0302 45.657C33.6067 45.657 35.0905 45.0095 36.2033 43.7609C36.5742 43.3447 36.8989 42.8823 37.1307 42.3736C37.8725 40.6626 37.7335 38.7202 36.7597 37.148C36.157 36.2231 35.3224 35.4832 34.3486 35.0669L22.2929 29.7025C20.8556 29.0551 19.279 28.639 17.7026 28.454C13.6222 27.9915 9.58813 29.1013 6.34237 31.5523L0.5 36.3155V56.617H4.20944V38.0729Z" fill="#7FB3E3"/>
<path id="Vector_6" fill-rule="evenodd" clip-rule="evenodd" d="M41.7174 12.7912C41.6825 12.4816 41.3205 12.2489 41.0074 12.2489C39.9953 12.2489 39.0973 11.6562 38.7206 10.7397C38.3358 9.80086 38.5839 8.70601 39.3382 8.01598C39.5756 7.79952 39.6044 7.43717 39.4054 7.18546C38.8874 6.52943 38.2986 5.93685 37.6557 5.42327C37.4041 5.22181 37.0347 5.24983 36.8165 5.49089C36.1581 6.21798 34.9757 6.48821 34.062 6.10799C33.1111 5.70908 32.5116 4.74815 32.5702 3.71666C32.5895 3.39267 32.3521 3.11096 32.0282 3.07334C31.2033 2.97818 30.3711 2.97523 29.5437 3.06678C29.2235 3.10203 28.9861 3.37709 28.9968 3.69698C29.0329 4.71831 28.4261 5.66244 27.4846 6.04701C26.5818 6.41477 25.4077 6.14684 24.7507 5.42622C24.5336 5.18886 24.1703 5.15968 23.9173 5.35632C23.2554 5.87423 22.6534 6.4673 22.1306 7.11792C21.9267 7.37085 21.9568 7.73747 22.1965 7.95508C22.9652 8.64929 23.2134 9.75365 22.8141 10.7033C22.4328 11.6086 21.4902 12.1921 20.4111 12.1921C20.0609 12.1809 19.8115 12.4153 19.7731 12.7328C19.676 13.5603 19.6748 14.4034 19.7684 15.2377C19.8031 15.5486 20.1761 15.7792 20.4926 15.7792C21.4543 15.7547 22.3777 16.3486 22.765 17.2886C23.151 18.2274 22.9029 19.3215 22.1474 20.0122C21.9111 20.2287 21.8812 20.5905 22.0803 20.8421C22.5935 21.4939 23.1823 22.0872 23.8274 22.6049C24.0805 22.8083 24.4486 22.7796 24.668 22.5386C25.3287 21.8097 26.511 21.54 27.4211 21.9209C28.3743 22.3186 28.974 23.2795 28.9153 24.3115C28.8962 24.6356 29.1348 24.9179 29.4573 24.9549C29.8794 25.004 30.3039 25.0286 30.7295 25.0286C31.1336 25.0286 31.5379 25.0063 31.942 24.9615C32.2622 24.9263 32.4995 24.6512 32.4886 24.3308C32.4517 23.31 33.0595 22.3658 33.9997 21.982C34.9086 21.6117 36.0778 21.8828 36.7348 22.6026C36.9532 22.8394 37.314 22.868 37.5683 22.6721C38.2289 22.1554 38.8298 21.5629 39.3549 20.9104C39.5587 20.658 39.5301 20.2909 39.289 20.0733C38.5204 19.3791 38.2709 18.2746 38.6703 17.3256C39.0457 16.4323 39.9532 15.8325 40.9295 15.8325L41.0661 15.836C41.3827 15.8617 41.6741 15.6184 41.7125 15.296C41.8097 14.4679 41.8109 13.6255 41.7174 12.7912ZM30.7604 17.7114C28.729 17.7114 27.0767 16.0635 27.0767 14.0376C27.0767 12.0117 28.729 10.3637 30.7604 10.3637C32.7917 10.3637 34.4441 12.0117 34.4441 14.0376C34.4441 16.0635 32.7917 17.7114 30.7604 17.7114Z" stroke="#264B82" stroke-width="2"/>
</g>
<defs>
<linearGradient id="paint0_linear_43_22282" x1="29.9153" y1="12.717" x2="51.061" y2="38.9897" gradientUnits="userSpaceOnUse">
<stop offset="0.270104" stop-color="#C7DEEA"/>
<stop offset="1" stop-color="white" stop-opacity="0"/>
</linearGradient>
<linearGradient id="paint1_linear_43_22282" x1="24.2014" y1="33.4952" x2="24.2014" y2="61.7109" gradientUnits="userSpaceOnUse">
<stop stop-color="#077EBB"/>
<stop offset="1" stop-color="#077EBB" stop-opacity="0"/>
</linearGradient>
<linearGradient id="paint2_linear_43_22282" x1="35.8823" y1="8.1356" x2="35.8823" y2="30.1251" gradientUnits="userSpaceOnUse">
<stop stop-color="#077EBB"/>
<stop offset="1" stop-color="#077EBB" stop-opacity="0"/>
</linearGradient>
<clipPath id="clip0_43_22282">
<rect width="64" height="64" fill="white" transform="translate(0.5)"/>
</clipPath>
</defs>
</svg>
