<svg width="16" height="16" viewBox="0 0 16 16" fill="none" xmlns="http://www.w3.org/2000/svg">
<g id="qa.1f60a43b852d8179e105448e420eb17c 1" clip-path="url(#clip0_43_21661)">
<path id="Vector" d="M13.344 6.23386V5.66586C13.344 4.30709 12.8345 3.04432 11.9116 2.10709C10.9651 1.14524 9.66395 0.617859 8.24443 0.617859H7.74843C6.32891 0.617859 5.02779 1.14524 4.08123 2.10709C3.15835 3.04432 2.64955 4.3077 2.64955 5.66586V6.23386C1.52955 6.30524 0.638672 7.18647 0.638672 8.26278V9.15017C0.638672 10.2702 1.60507 11.1828 2.79099 11.1828H4.00315C4.1067 11.1834 4.20631 11.1446 4.28019 11.0749C4.35407 11.0051 4.39621 10.91 4.39739 10.8105V6.60001C4.39621 6.50045 4.35407 6.40539 4.28019 6.33562C4.20631 6.26585 4.1067 6.22705 4.00315 6.22771H3.43803V5.66586C3.43803 3.2117 5.29147 1.36247 7.74523 1.36247H8.24187C10.6995 1.36247 12.5491 3.2117 12.5491 5.66586V6.22771H11.984C11.8804 6.22705 11.7808 6.26585 11.7069 6.33562C11.633 6.40539 11.5909 6.50045 11.5897 6.60001V10.8074C11.5897 11.0123 11.7676 11.1797 11.984 11.1797H12.5363C12.375 13.1219 10.9593 13.5717 10.302 13.6745C10.2086 13.4101 10.0311 13.1807 9.7946 13.0187C9.55812 12.8567 9.27464 12.7703 8.98427 12.7717H7.99867C7.23643 12.7717 6.61563 13.3582 6.61563 14.0775C6.61563 14.7969 7.23643 15.3871 7.99803 15.3871H8.98747C9.28847 15.3883 9.58166 15.295 9.8225 15.1214C10.0633 14.9478 10.2387 14.7034 10.3219 14.4252C10.7919 14.3637 11.2457 14.2176 11.6595 13.9945C12.3718 13.6 13.2166 12.7963 13.328 11.1766C14.455 11.1114 15.3491 10.2271 15.3491 9.14709V8.2597C15.3523 7.18647 14.4646 6.30217 13.344 6.23386ZM3.61467 10.4351H2.79675C2.04411 10.4351 1.43355 9.85786 1.43355 9.14709V8.2597C1.43355 7.54955 2.04411 6.97232 2.79675 6.97232H3.61467V10.4351ZM8.98683 14.6425H7.99803C7.66907 14.6425 7.40283 14.3908 7.40283 14.0806C7.40283 13.7705 7.66907 13.5194 7.99803 13.5194H8.98683C9.31515 13.5194 9.58203 13.7705 9.58203 14.0806C9.58203 14.3908 9.31515 14.6425 8.98683 14.6425ZM14.5625 9.14709C14.5625 9.85786 13.9513 10.4351 13.1993 10.4351H12.3808V6.97232H13.1993C13.9513 6.97232 14.5625 7.54955 14.5625 8.2597V9.14709Z" fill="#264B82" stroke="#264B82" stroke-width="0.5"/>
</g>
<defs>
<clipPath id="clip0_43_21661">
<rect width="16" height="16" fill="white"/>
</clipPath>
</defs>
</svg>
