<svg width="30" height="30" viewBox="0 0 30 30" fill="none" xmlns="http://www.w3.org/2000/svg">
<g id="contracts_icon.3b303f94138c6055d8bd8d9814c4d8e8 1">
<path id="Vector" d="M20.314 9.90897L20.31 9.91297L17.863 12.36L17.846 12.377L17.839 12.399L16.536 16.349C16.5139 16.4158 16.5098 16.4873 16.5241 16.5563C16.5385 16.6252 16.5708 16.6891 16.6178 16.7416C16.6647 16.794 16.7247 16.8332 16.7917 16.855C16.8586 16.8769 16.9302 16.8806 16.999 16.866L20.902 16.036L20.924 16.031L20.941 16.018L22.217 15.065L22.223 15.061L22.228 15.056L28.074 9.20997C28.1768 9.10717 28.2581 8.98503 28.3134 8.8506C28.3686 8.71618 28.3967 8.57214 28.3959 8.42681C28.3952 8.28147 28.3656 8.13773 28.309 8.00388C28.2524 7.87002 28.1698 7.74872 28.066 7.64697L26.138 5.75897C25.9307 5.55633 25.6518 5.44371 25.362 5.44558C25.0721 5.44745 24.7947 5.56367 24.59 5.76897L21.588 8.77797L20.314 9.90897ZM19.39 12.779L23.418 8.88497L24.852 10.265L20.935 14.181L18.632 14.79L19.39 12.779ZM25.878 9.23697L24.446 7.86797L25.38 6.93397L26.795 8.30397L25.878 9.23697Z" fill="#264B82" stroke="#264B82" stroke-width="0.2"/>
<path id="Vector_2" d="M21.0609 6.87699V5.16699C21.0609 4.63656 20.8502 4.12785 20.4752 3.75278C20.1001 3.37771 19.5914 3.16699 19.0609 3.16699H5.05095C4.52224 3.16699 4.01504 3.37633 3.64026 3.74924C3.26547 4.12215 3.05359 4.62829 3.05095 5.15699L2.97095 21.709C2.97095 26.452 5.34095 26.864 6.75495 26.831M21.0599 21.71H6.75495C8.47995 21.71 9.42695 22.766 9.42695 24.128C9.42695 25.49 8.16695 26.799 6.75495 26.832H21.0149L21.1039 26.834C21.5009 26.839 24.4479 26.793 24.4479 24.128C24.4479 21.271 21.0599 21.71 21.0599 21.71ZM21.0599 21.71V18.346M8.06495 8.00699H16.0649M8.06495 12.007H14.0649M8.06495 16.007H12.0649" stroke="#264B82" stroke-width="2" stroke-linecap="round" stroke-linejoin="round"/>
</g>
</svg>
