<svg width="24" height="25" viewBox="0 0 24 25" fill="none" xmlns="http://www.w3.org/2000/svg">
<g id="more_icon.c46c829cd241988b0b9017b747c81926 1">
<path id="Vector" d="M12 23.54C18.0972 23.54 23.04 18.5972 23.04 12.5C23.04 6.40277 18.0972 1.45999 12 1.45999C5.9028 1.45999 0.960022 6.40277 0.960022 12.5C0.960022 18.5972 5.9028 23.54 12 23.54Z" fill="#ECF1F9" stroke="#264B82" stroke-width="1.6"/>
<path id="Vector_2" d="M16.296 12.5516C16.296 13.4642 17.0358 14.204 17.9484 14.204C18.861 14.204 19.6008 13.4642 19.6008 12.5516C19.6008 11.639 18.861 10.8992 17.9484 10.8992C17.0358 10.8992 16.296 11.639 16.296 12.5516Z" fill="#264B82"/>
<path id="Vector_3" d="M10.3476 12.5516C10.3476 13.4642 11.0874 14.204 12 14.204C12.9126 14.204 13.6524 13.4642 13.6524 12.5516C13.6524 11.639 12.9126 10.8992 12 10.8992C11.0874 10.8992 10.3476 11.639 10.3476 12.5516Z" fill="#264B82"/>
<path id="Vector_4" d="M4.4004 12.5516C4.4004 13.4642 5.1402 14.204 6.0528 14.204C6.9654 14.204 7.7052 13.4642 7.7052 12.5516C7.7052 11.639 6.9654 10.8992 6.0528 10.8992C5.1402 10.8992 4.4004 11.639 4.4004 12.5516Z" fill="#264B82"/>
</g>
</svg>
