<svg width="16" height="16" viewBox="0 0 16 16" fill="none" xmlns="http://www.w3.org/2000/svg">
<g id="direction.8504c6663d406efa62ba0d1f5c8d4045 1" clip-path="url(#clip0_43_21669)">
<path id="Vector (Stroke)" fill-rule="evenodd" clip-rule="evenodd" d="M0.855059 6.80394C0.843623 6.80852 0.838266 6.81287 0.838266 6.81287L0.836407 6.81493C0.835044 6.8171 0.831188 6.82529 0.831714 6.83882C0.832232 6.85234 0.836704 6.86025 0.838236 6.86231L0.840247 6.86423C0.840247 6.86423 0.845931 6.8682 0.857687 6.87196L0.88936 6.88209L6.33753 8.6235C6.77962 8.76481 7.12658 9.09601 7.27461 9.51798L9.09892 14.7184C9.10446 14.7342 9.10676 14.755 9.11962 14.7673C9.13227 14.7756 9.15607 14.7766 9.1693 14.769C9.17486 14.7645 9.17802 14.7576 9.1808 14.7512L15.1343 1.18783C15.1404 1.17398 15.1568 1.15072 15.1536 1.13492C15.1507 1.12165 15.1316 1.1011 15.1163 1.10242C15.0928 1.10468 15.0683 1.11951 15.0469 1.12808L0.855059 6.80394ZM13.7629 2.43013L2.92339 6.76527L6.57945 7.93386C7.24825 8.14764 7.77314 8.64868 7.99709 9.28704L9.22133 12.7769L13.7629 2.43013Z" fill="#264B82" stroke="#264B82" stroke-width="0.5"/>
</g>
<defs>
<clipPath id="clip0_43_21669">
<rect width="16" height="16" fill="white"/>
</clipPath>
</defs>
</svg>
