<svg width="25" height="25" viewBox="0 0 25 25" fill="none" xmlns="http://www.w3.org/2000/svg">
<g id="organization_supplier_customer_icon.fab2598fb28215422c3247f730062775 1" clip-path="url(#clip0_43_21942)">
<path id="Vector" d="M11.9982 10.7427C14.0442 10.7427 15.7029 9.08409 15.7029 7.03804C15.7029 4.99199 14.0442 3.33334 11.9982 3.33334C9.95211 3.33334 8.29346 4.99199 8.29346 7.03804C8.29346 9.08409 9.95211 10.7427 11.9982 10.7427Z" stroke="#264B82" stroke-width="2"/>
<path id="Vector_2" fill-rule="evenodd" clip-rule="evenodd" d="M9.21362 22.0592H4.75663H3.08997V21.2188C3.08997 20.9402 3.10276 20.6646 3.12778 20.3925C3.54466 15.8601 7.35681 12.3108 11.998 12.3108C14.1958 12.3108 16.2078 13.1068 17.7613 14.4262L16.5716 15.6044C15.3247 14.5873 13.7325 13.9774 11.998 13.9774C8.27809 13.9774 5.21334 16.7823 4.80326 20.3925H9.19746L9.21362 22.0592Z" fill="#264B82"/>
<path id="Vector_3" fill-rule="evenodd" clip-rule="evenodd" d="M10.2278 18.1343C10.2278 17.4305 10.7952 16.8914 11.4359 16.8914H19.9878C20.6627 16.8914 21.161 17.4663 21.1611 18.1343V19.1141C21.1611 19.6248 20.8699 20.081 20.4311 20.2676V23.7407C20.4311 24.4088 19.9326 24.9836 19.2578 24.9836H12.1138C11.4732 24.9836 10.9057 24.4445 10.9057 23.7407V20.6068C10.9057 20.5666 10.8851 20.4863 10.7644 20.3053C10.7278 20.2504 10.6961 20.206 10.6604 20.1559C10.6337 20.1183 10.6047 20.0776 10.5696 20.0268C10.4996 19.9257 10.4192 19.803 10.3538 19.6673C10.2737 19.5013 10.2278 19.313 10.2278 19.1141V18.1343ZM11.3041 18.019C11.2687 18.0548 11.2534 18.0961 11.2534 18.1343V19.1141C11.2534 19.1397 11.2592 19.1637 11.27 19.1862C11.298 19.2442 11.34 19.3117 11.4013 19.4003C11.419 19.4258 11.4419 19.4582 11.467 19.4937C11.5124 19.5576 11.5648 19.6316 11.6061 19.6936C11.742 19.8973 11.9314 20.2134 11.9314 20.6068V23.7407C11.9314 23.7789 11.9465 23.8202 11.982 23.8559C12.0183 23.8925 12.0661 23.9129 12.1138 23.9129H19.2578C19.3014 23.9129 19.3346 23.8961 19.3593 23.8693C19.385 23.8415 19.4054 23.798 19.4054 23.7407V19.8943C19.4054 19.5585 19.6662 19.2864 19.9878 19.2864C20.0315 19.2864 20.0647 19.2695 20.0894 19.2428C20.1151 19.2149 20.1354 19.1714 20.1354 19.1141V18.1344C20.1354 18.0771 20.115 18.0335 20.0893 18.0057C20.0646 17.9789 20.0314 17.9621 19.9878 17.9621H11.4359C11.3882 17.9621 11.3404 17.9825 11.3041 18.019Z" fill="#264B82"/>
<path id="Vector_4" fill-rule="evenodd" clip-rule="evenodd" d="M10 18.1343C10 17.3099 10.6657 16.6667 11.4358 16.6667H19.9878C20.8088 16.6667 21.3888 17.3631 21.3889 18.1342V19.1141C21.3889 19.6533 21.1087 20.1512 20.6588 20.4061V23.7407C20.6588 24.5119 20.0787 25.2083 19.2578 25.2083H12.1137C11.3437 25.2083 10.6779 24.5651 10.6779 23.7407V20.6162C10.6768 20.6125 10.6745 20.6058 10.6702 20.5957C10.6573 20.5652 10.6299 20.5126 10.5741 20.4289C10.5396 20.3772 10.5098 20.3353 10.4741 20.2852C10.4473 20.2476 10.4174 20.2056 10.3814 20.1536C10.3096 20.0496 10.2212 19.9155 10.1481 19.7639C10.0538 19.5685 10 19.3473 10 19.1141V18.1343ZM11.4358 17.1162C10.9246 17.1162 10.4556 17.5511 10.4556 18.1343V19.1141C10.4556 19.2787 10.4935 19.4341 10.5594 19.5708C10.6172 19.6905 10.6897 19.8017 10.7577 19.9002C10.7918 19.9495 10.82 19.9891 10.8467 20.0267L10.8474 20.0276C10.8828 20.0772 10.9161 20.124 10.9546 20.1817C11.0783 20.3672 11.1334 20.4956 11.1334 20.6068V23.7407C11.1334 24.324 11.6026 24.7587 12.1137 24.7587H19.2578C19.7866 24.7587 20.2033 24.3056 20.2033 23.7407V20.1197L20.3409 20.0612C20.6887 19.9132 20.9333 19.5433 20.9333 19.1141V18.1343C20.9333 17.5694 20.5165 17.1162 19.9878 17.1162H11.4358ZM11.4813 18.1868V19.1008C11.502 19.1414 11.5351 19.195 11.5894 19.2736C11.6062 19.2978 11.6282 19.329 11.6537 19.3648L11.6547 19.3663C11.6993 19.4292 11.7532 19.5053 11.7963 19.57C11.9362 19.7797 12.1591 20.1432 12.1591 20.6068V23.6882H19.1776V19.8942C19.1776 19.4728 19.4882 19.1072 19.9077 19.0656V18.1868H11.4813ZM11.1413 17.8618C11.2172 17.7853 11.3225 17.7372 11.4358 17.7372H19.9878C20.0992 17.7372 20.1922 17.7835 20.2576 17.8542C20.3228 17.9248 20.3632 18.0229 20.3632 18.1343V19.1141C20.3632 19.2256 20.3228 19.3237 20.2576 19.3942C20.1923 19.4649 20.0992 19.5112 19.9878 19.5112C19.8038 19.5112 19.6332 19.6706 19.6332 19.8942V23.7407C19.6332 23.8522 19.5928 23.9502 19.5276 24.0208C19.4622 24.0915 19.3692 24.1377 19.2578 24.1377H12.1137C12.0004 24.1377 11.8952 24.0897 11.8192 24.0132C11.7435 23.9368 11.7036 23.8397 11.7036 23.7407V20.6068C11.7036 20.2835 11.5477 20.0149 11.4158 19.8172C11.3766 19.7583 11.3262 19.6872 11.2803 19.6225L11.2797 19.6215C11.255 19.5867 11.2315 19.5536 11.2131 19.527C11.1501 19.4358 11.1 19.3568 11.0643 19.2827C11.0392 19.2308 11.0257 19.1738 11.0257 19.1141V18.1343C11.0257 18.0353 11.0656 17.9382 11.1413 17.8618Z" fill="#264B82"/>
<path id="Vector_5" fill-rule="evenodd" clip-rule="evenodd" d="M14.2097 20.7487C14.083 20.7487 13.9801 20.8561 13.9801 20.9884C13.9801 21.1207 14.083 21.2281 14.2097 21.2281H17.1795C17.3063 21.2281 17.4091 21.1207 17.4091 20.9884C17.4091 20.8561 17.3063 20.7487 17.1795 20.7487H14.2097ZM12.9545 20.9884C12.9545 20.2647 13.5165 19.6782 14.2097 19.6782H17.1795C17.8727 19.6782 18.4347 20.2647 18.4347 20.9884C18.4347 21.7121 17.8727 22.2987 17.1795 22.2987H14.2097C13.5165 22.2987 12.9545 21.7121 12.9545 20.9884Z" fill="#264B82"/>
</g>
<defs>
<clipPath id="clip0_43_21942">
<rect width="25" height="25" fill="white"/>
</clipPath>
</defs>
</svg>
