<svg width="100" height="100" viewBox="0 0 100 100" fill="none" xmlns="http://www.w3.org/2000/svg">
<g id="tab_all_icon.1de88892d1a12f3f96025fb234d097ed 1">
<path id="Vector" opacity="0.2" fill-rule="evenodd" clip-rule="evenodd" d="M60.6962 52.5158C65.366 50.5918 68.6531 45.9956 68.6531 40.6315C68.6531 33.5357 62.9008 27.7834 55.805 27.7834C48.7092 27.7834 42.957 33.5357 42.957 40.6315C42.957 45.9956 46.2442 50.5919 50.914 52.5159C40.2817 54.6054 32.0459 63.3764 30.76 74.2755C30.6444 75.255 30.585 76.2517 30.585 77.2622V79.6415H81.0256V77.2622C81.0256 76.2517 80.9661 75.255 80.8506 74.2755C79.5646 63.3763 71.3286 54.6053 60.6962 52.5158Z" fill="url(#paint0_linear_43_22238)"/>
<path id="Vector_2" d="M24.5002 70.3581C24.5652 57.8656 34.7124 47.7585 47.2202 47.7585C59.728 47.7585 69.8752 57.8656 69.9402 70.3581H24.5002Z" stroke="#7FB3E3" stroke-width="5"/>
<path id="Vector_3" d="M47.22 44.1962C52.9351 44.1962 57.5681 39.5632 57.5681 33.8481C57.5681 28.133 52.9351 23.5 47.22 23.5C41.5049 23.5 36.8719 28.133 36.8719 33.8481C36.8719 39.5632 41.5049 44.1962 47.22 44.1962Z" stroke="#7FB3E3" stroke-width="5"/>
<path id="Vector_4" d="M38.0986 59.9797L50.9771 72.8581L72.4412 51.394" stroke="#2155A5" stroke-width="6"/>
</g>
<defs>
<linearGradient id="paint0_linear_43_22238" x1="55.8053" y1="27.7834" x2="55.8053" y2="79.6415" gradientUnits="userSpaceOnUse">
<stop stop-color="#077EBB"/>
<stop offset="1" stop-color="#077EBB" stop-opacity="0"/>
</linearGradient>
</defs>
</svg>
