<svg width="100" height="100" viewBox="0 0 100 100" fill="none" xmlns="http://www.w3.org/2000/svg">
<g id="tab_suppliers_icon.fa166c24e72089b5af2566f0159ad690 1">
<g id="Group" opacity="0.2">
<path id="Vector" fill-rule="evenodd" clip-rule="evenodd" d="M87.9998 65.2606V45.2463L77.9927 35.2391H64.5831V62.0083H57.9033V31.9868H27.8818V72.0154H34.6617C35.0528 70.135 36.0799 68.4468 37.5699 67.2348C39.0599 66.0229 40.9219 65.3612 42.8425 65.3612C44.7632 65.3612 46.6252 66.0229 48.1152 67.2348C49.6052 68.4468 50.6322 70.135 51.0234 72.0154H68.0606C68.4398 70.1216 69.4633 68.4177 70.957 67.1933C72.4508 65.969 74.3225 65.3 76.2539 65.3C78.1853 65.3 80.0571 65.969 81.5508 67.1933C83.0446 68.4177 84.0681 70.1216 84.4473 72.0154H87.9998V65.2606ZM42.8692 68.7121C41.8796 68.7121 40.9122 69.0056 40.0893 69.5554C39.2665 70.1052 38.6252 70.8866 38.2465 71.8009C37.8678 72.7152 37.7687 73.7213 37.9617 74.6919C38.1548 75.6625 38.6314 76.554 39.3311 77.2538C40.0309 77.9535 40.9224 78.4301 41.893 78.6231C42.8636 78.8162 43.8697 78.7171 44.784 78.3384C45.6983 77.9597 46.4797 77.3184 47.0295 76.4955C47.5793 75.6727 47.8728 74.7053 47.8728 73.7157C47.8728 72.3887 47.3456 71.116 46.4072 70.1776C45.4689 69.2393 44.1962 68.7121 42.8692 68.7121ZM73.5103 69.5554C74.3331 69.0056 75.3005 68.7121 76.2901 68.7121C77.6171 68.7121 78.8898 69.2393 79.8282 70.1776C80.7665 71.116 81.2937 72.3887 81.2937 73.7157C81.2937 74.7053 81.0002 75.6727 80.4504 76.4955C79.9006 77.3184 79.1192 77.9597 78.2049 78.3384C77.2906 78.7171 76.2845 78.8162 75.3139 78.6231C74.3433 78.4301 73.4518 77.9535 72.752 77.2538C72.0523 76.554 71.5757 75.6625 71.3827 74.6919C71.1896 73.7213 71.2887 72.7152 71.6674 71.8009C72.0461 70.8866 72.6874 70.1052 73.5103 69.5554Z" fill="url(#paint0_linear_43_22252)"/>
</g>
<path id="Vector_2" d="M78.1931 56.2041V36.1898C74.2903 32.287 72.0637 30.0854 68.1859 26.1826H54.7763V52.9518H18V62.9589H24.8549C25.2461 61.0785 26.2731 59.3903 27.7631 58.1783C29.2531 56.9664 31.1151 56.3047 33.0358 56.3047C34.9564 56.3047 36.8184 56.9664 38.3084 58.1783C39.7984 59.3903 40.8254 61.0785 41.2166 62.9589H58.2788C58.67 61.0785 59.697 59.3903 61.187 58.1783C62.677 56.9664 64.539 56.3047 66.4597 56.3047C68.3803 56.3047 70.2424 56.9664 71.7324 58.1783C73.2224 59.3903 74.2494 61.0785 74.6405 62.9589H84.8478V56.2041H78.1931ZM61.4311 46.1969V32.8374H65.3339L71.4382 38.9417V46.1969H61.4311Z" fill="#7FB3E3"/>
<path id="Vector_3" d="M43.0931 27.8088V47.8231H23.0788V27.8088H43.0931ZM48.0967 22.8052H18.0752V53.11H48.0967V22.8052Z" fill="#7FB3E3"/>
<path id="Vector_4" fill-rule="evenodd" clip-rule="evenodd" d="M30.2814 60.4246C31.1042 59.8748 32.0716 59.5813 33.0612 59.5813C34.3882 59.5813 35.6609 60.1085 36.5993 61.0468C37.5376 61.9852 38.0648 63.2578 38.0648 64.5849C38.0648 65.5745 37.7713 66.5419 37.2215 67.3647C36.6717 68.1875 35.8903 68.8289 34.976 69.2076C34.0617 69.5863 33.0556 69.6854 32.085 69.4923C31.1144 69.2992 30.2229 68.8227 29.5231 68.1229C28.8234 67.4232 28.3468 66.5316 28.1538 65.561C27.9607 64.5904 28.0598 63.5844 28.4385 62.6701C28.8172 61.7558 29.4585 60.9744 30.2814 60.4246ZM32.9396 66.683C34.1183 66.683 35.0737 65.7275 35.0737 64.5488C35.0737 63.3702 34.1183 62.4147 32.9396 62.4147C31.761 62.4147 30.8055 63.3702 30.8055 64.5488C30.8055 65.7275 31.761 66.683 32.9396 66.683Z" fill="#2155A5"/>
<path id="Vector_5" fill-rule="evenodd" clip-rule="evenodd" d="M63.6544 60.4246C64.4772 59.8748 65.4446 59.5813 66.4342 59.5813C67.7613 59.5813 69.034 60.1085 69.9723 61.0468C70.9107 61.9852 71.4378 63.2578 71.4378 64.5849C71.4378 65.5745 71.1444 66.5419 70.5946 67.3647C70.0448 68.1875 69.2633 68.8289 68.349 69.2076C67.4347 69.5863 66.4287 69.6854 65.4581 69.4923C64.4875 69.2992 63.5959 68.8227 62.8962 68.1229C62.1964 67.4232 61.7199 66.5316 61.5268 65.561C61.3337 64.5904 61.4328 63.5844 61.8115 62.6701C62.1903 61.7558 62.8316 60.9744 63.6544 60.4246ZM66.4025 66.683C67.5811 66.683 68.5366 65.7275 68.5366 64.5488C68.5366 63.3702 67.5811 62.4147 66.4025 62.4147C65.2238 62.4147 64.2683 63.3702 64.2683 64.5488C64.2683 65.7275 65.2238 66.683 66.4025 66.683Z" fill="#2155A5"/>
</g>
<defs>
<linearGradient id="paint0_linear_43_22252" x1="57.9908" y1="32.0489" x2="57.9908" y2="78.6986" gradientUnits="userSpaceOnUse">
<stop stop-color="#077EBB"/>
<stop offset="1" stop-color="#077EBB" stop-opacity="0"/>
</linearGradient>
</defs>
</svg>
