<svg width="25" height="23" viewBox="0 0 25 23" fill="none" xmlns="http://www.w3.org/2000/svg">
<g id="pp.bd471d3b8c72a32465222e616c460317 1">
<path id="Vector" d="M18.8553 2.49167H11.3915C9.44985 2.49167 7.87585 4.03629 7.87585 5.94167V13.2661C7.87585 15.1715 9.44985 16.7161 11.3915 16.7161H18.8553C20.7969 16.7161 22.3709 15.1715 22.3709 13.2661V5.94167C22.3709 4.03629 20.7969 2.49167 18.8553 2.49167Z" stroke="#264B82" stroke-width="1.5"/>
<path id="Vector_2" d="M12.1513 7.62567H4.6875C2.74587 7.62567 1.17188 9.17029 1.17188 11.0757V18.4001C1.17188 20.3055 2.74587 21.8501 4.6875 21.8501H12.1513C14.0929 21.8501 15.6669 20.3055 15.6669 18.4001V11.0757C15.6669 9.17029 14.0929 7.62567 12.1513 7.62567Z" stroke="#DB2B21" stroke-width="1.5"/>
</g>
</svg>
